<?xml version="1.0" standalone="no"?>
<!DOCTYPE svg PUBLIC "-//W3C//DTD SVG 20010904//EN"
 "http://www.w3.org/TR/2001/REC-SVG-20010904/DTD/svg10.dtd">
<svg version="1.0" xmlns="http://www.w3.org/2000/svg"
 width="1152.000000pt" height="1152.000000pt" viewBox="0 0 1152.000000 1152.000000"
 preserveAspectRatio="xMidYMid meet">
<metadata>
Created by potrace 1.11, written by Peter Selinger 2001-2013
</metadata>
<g transform="translate(0.000000,1152.000000) scale(0.100000,-0.100000)"
fill="#000000" stroke="none">
<path d="M2407 10304 c-1 -1 -69 -4 -152 -8 -82 -4 -166 -9 -185 -10 -50 -5
-168 -17 -213 -21 -20 -2 -61 -7 -90 -9 -113 -12 -148 -16 -175 -20 -15 -3
-49 -7 -77 -11 -90 -11 -133 -18 -290 -45 -168 -28 -167 -28 -295 -56 -63 -15
-124 -31 -135 -37 -11 -6 -21 -10 -22 -9 -8 5 -64 -12 -69 -20 -5 -8 -9 -566
-5 -639 1 -9 19 -24 41 -34 128 -58 216 -286 255 -665 3 -30 8 -66 10 -80 2
-14 7 -50 10 -80 3 -30 8 -62 10 -70 2 -8 7 -35 10 -60 4 -25 13 -79 21 -120
30 -150 22 -140 109 -140 l73 0 -24 -57 c-39 -97 -58 -198 -58 -323 -1 -159
18 -254 75 -387 44 -104 169 -266 314 -408 69 -68 339 -324 394 -375 54 -49
117 -136 151 -210 33 -71 35 -80 35 -185 0 -100 -2 -115 -28 -167 -72 -147
-236 -207 -363 -133 -80 47 -156 170 -179 293 -10 50 -19 118 -17 126 2 4 -32
5 -75 2 -43 -4 -109 -9 -148 -12 -38 -2 -95 -7 -125 -9 -30 -2 -63 -4 -72 -4
-10 -1 -16 -7 -13 -13 2 -7 6 -42 9 -77 12 -141 78 -335 151 -445 84 -127 208
-225 342 -269 210 -69 472 -48 646 52 197 113 323 351 332 627 5 172 -41 326
-156 519 -27 46 -20 37 -97 135 -67 85 -163 184 -242 250 -30 25 -61 52 -70
60 -8 8 -31 28 -50 43 -43 35 -158 147 -184 177 -74 90 -142 225 -161 317 -17
85 -4 206 31 279 54 114 160 160 285 122 84 -25 160 -141 183 -279 6 -38 14
-68 16 -65 3 2 22 7 42 10 20 3 112 20 205 37 150 27 189 40 178 59 -1 3 -6
25 -9 50 -32 237 -167 435 -361 531 -108 53 -201 72 -355 72 -181 0 -297 -34
-417 -124 -29 -22 -54 -39 -57 -39 -3 0 -8 21 -11 48 -4 26 -9 58 -11 72 -22
136 -25 533 -5 645 6 39 14 84 17 100 19 117 86 305 143 400 62 102 178 161
447 229 125 31 429 86 559 100 28 4 70 9 95 12 178 22 306 29 540 29 201 0
363 -7 428 -20 9 -1 37 -6 62 -10 25 -3 57 -9 72 -11 347 -55 714 -183 1008
-352 191 -110 235 -159 260 -292 12 -61 15 -212 6 -275 -3 -22 -8 -58 -11 -80
-7 -57 -59 -264 -93 -370 l-29 -90 -146 -3 -146 -3 2 -1479 c2 -1474 2 -1480
-18 -1481 -11 0 -71 -1 -132 -1 l-113 0 0 -1484 0 -1484 225 0 225 0 0 629 0
629 288 0 c158 0 294 1 302 1 14 1 16 29 14 219 -1 119 -2 220 -3 223 0 4
-124 7 -273 7 -150 0 -285 1 -300 1 l-28 1 0 403 0 402 406 0 c223 0 409 2
414 5 5 3 8 103 7 222 l-2 217 45 3 c25 2 75 2 111 0 l66 -4 0 -1474 c0 -811
3 -1477 6 -1480 4 -5 1080 -8 1247 -5 l25 1 -2 217 c-1 120 -2 221 -2 226 -1
4 -185 7 -411 7 -383 0 -410 1 -411 18 -1 20 -1 774 0 783 1 3 126 7 279 7
152 0 288 1 302 1 l25 1 -1 214 c-1 117 -4 218 -8 224 -4 7 -101 10 -301 9
-289 -2 -295 -2 -296 18 -1 24 -1 742 0 770 1 20 7 20 411 20 226 0 410 2 411
5 1 7 1 423 0 436 -1 8 -38 11 -113 12 -62 0 -121 1 -130 1 -17 1 -18 79 -18
1481 l0 1480 -65 0 -64 0 -31 98 c-118 384 -137 725 -48 884 31 55 221 165
458 266 249 105 581 194 850 228 30 3 62 8 71 9 140 26 818 26 958 0 9 -1 45
-6 81 -9 84 -9 288 -44 420 -71 212 -45 372 -94 434 -133 167 -104 265 -300
311 -622 11 -70 13 -405 4 -505 -11 -122 -19 -196 -24 -220 -2 -11 -4 -31 -4
-44 -1 -23 -2 -23 -23 -7 -73 53 -133 88 -189 110 -356 138 -753 -24 -911
-371 -16 -37 -32 -75 -34 -85 -2 -10 -6 -28 -9 -40 -2 -13 -8 -36 -11 -52 -9
-42 -8 -1779 1 -1846 29 -210 181 -417 383 -520 34 -18 62 -33 62 -34 0 -1
-97 -1 -215 -1 l-215 0 -1 -55 c-1 -65 0 -370 0 -386 1 -8 63 -12 209 -12 114
0 221 -1 237 -1 l30 -1 0 -1255 0 -1255 30 -1 c144 -3 407 0 412 4 3 3 6 569
7 1258 l1 1252 237 0 236 -1 -1 227 -2 226 -217 0 c-120 0 -218 2 -218 6 0 3
17 13 37 23 187 89 353 299 388 491 4 22 9 298 11 613 l3 572 -358 0 -358 0
-2 -225 -1 -225 28 -1 c15 0 71 -1 125 -1 l97 -1 0 -310 c0 -208 -4 -323 -12
-349 -6 -22 -29 -59 -50 -83 -123 -139 -339 -111 -423 56 l-25 48 3 878 c2
834 3 880 21 913 45 86 124 140 213 145 100 6 198 -49 246 -139 20 -38 22 -57
25 -252 l3 -211 234 0 233 0 0 199 c0 202 -11 293 -45 393 -9 28 -23 57 -30
66 -22 26 -15 39 22 40 19 1 40 3 45 4 6 1 19 3 30 4 26 1 37 29 55 145 21
136 28 195 51 406 15 151 65 358 112 465 45 105 120 198 168 211 21 5 21 8 22
319 0 227 -3 317 -11 323 -10 7 -181 52 -252 67 -11 2 -76 16 -145 30 -68 15
-136 28 -150 30 -14 2 -63 10 -110 19 -138 24 -359 52 -565 71 -360 34 -1027
39 -1295 10 -19 -2 -66 -6 -105 -10 -38 -3 -81 -8 -95 -10 -14 -2 -47 -6 -75
-10 -129 -15 -191 -24 -230 -31 -11 -3 -36 -6 -55 -8 -48 -6 -105 -15 -165
-26 -27 -6 -67 -12 -89 -16 -21 -3 -48 -8 -60 -10 -11 -2 -34 -7 -51 -9 -144
-25 -372 -75 -525 -116 -102 -27 -194 -51 -205 -54 -11 -2 -63 -13 -115 -25
-126 -29 -199 -43 -283 -56 -193 -30 -690 -24 -911 11 -43 7 -63 10 -136 20
-25 4 -65 11 -90 16 -25 5 -61 12 -80 15 -28 5 -177 42 -400 99 -34 9 -327 74
-350 79 -22 4 -172 32 -225 42 -10 2 -37 6 -60 9 -22 3 -47 8 -55 10 -8 2 -33
6 -55 9 -22 4 -51 8 -65 11 -14 2 -45 7 -70 10 -25 3 -55 7 -68 10 -13 2 -51
7 -85 10 -34 3 -69 8 -77 10 -8 2 -49 7 -90 10 -41 3 -86 8 -100 10 -14 2 -65
7 -115 10 -49 4 -106 8 -125 10 -101 9 -665 25 -673 19z m3503 -1109 c78 -29
124 -56 173 -104 54 -51 76 -88 107 -182 12 -35 53 -149 92 -252 l69 -188 1
-1470 c0 -809 -2 -1473 -6 -1476 -6 -6 -284 -8 -290 -2 -2 2 -34 119 -69 259
-36 140 -97 379 -136 530 -39 151 -83 325 -99 386 l-28 111 38 39 c105 105
181 267 195 413 8 89 7 539 -1 626 -6 59 -13 100 -30 160 -41 151 -150 290
-276 352 -115 56 -241 82 -406 83 l-71 0 29 83 c16 45 52 156 79 247 55 182
78 229 138 283 120 108 348 156 491 102z m-539 -1191 c69 -20 120 -72 139
-140 20 -68 20 -562 1 -618 -17 -49 -83 -121 -136 -149 -35 -18 -59 -20 -207
-22 l-168 -1 0 473 0 473 158 0 c116 0 173 -4 213 -16z m-23 -1586 c78 -319
132 -540 137 -568 3 -14 23 -94 44 -177 l38 -153 -31 -1 c-41 -1 -496 -1 -518
0 -17 1 -18 34 -18 556 l0 555 148 0 148 0 52 -212z"/>
<path d="M7127 8478 c-10 -5 -12 -350 -12 -1485 l0 -1478 220 -2 c120 -1 222
2 225 7 3 4 5 427 5 939 0 513 3 924 7 914 12 -33 21 -58 23 -63 1 -3 4 -12 8
-20 6 -17 31 -92 32 -100 2 -10 16 -53 241 -745 54 -165 99 -304 100 -310 2
-9 67 -210 131 -405 13 -41 33 -101 43 -133 l18 -59 -25 7 c-47 12 -209 6
-289 -10 -273 -57 -473 -280 -510 -571 -33 -251 16 -475 145 -660 74 -107 138
-176 330 -362 347 -334 369 -356 409 -420 59 -91 80 -163 80 -268 0 -97 -14
-147 -57 -206 -57 -78 -139 -120 -231 -120 -131 1 -242 133 -284 337 -10 44
-19 90 -22 103 -2 13 -8 21 -12 19 -4 -3 -59 -8 -122 -12 -63 -3 -131 -8 -150
-10 -19 -2 -58 -5 -87 -6 -37 -2 -53 -7 -56 -18 -2 -9 4 -65 15 -126 55 -336
219 -565 468 -656 97 -35 149 -43 270 -44 127 0 198 10 282 39 191 67 326 211
398 424 35 106 44 166 44 292 -1 155 -55 319 -160 486 -99 158 -180 246 -409
444 -185 160 -261 245 -324 360 -49 92 -71 173 -72 266 -2 220 120 350 294
314 66 -13 116 -53 155 -123 29 -50 66 -173 64 -209 -1 -22 -5 -22 114 1 55
11 140 27 189 36 137 24 133 22 129 47 -12 89 -19 122 -41 188 -62 188 -171
319 -328 396 -60 29 -65 34 -40 35 17 0 96 0 178 0 l147 0 0 1485 c0 1180 -3
1484 -12 1485 -7 0 -109 1 -225 2 l-213 2 -2 -985 -3 -985 -49 165 c-27 91
-64 215 -82 275 -18 61 -44 151 -59 200 -14 50 -39 133 -55 185 -16 52 -97
325 -180 605 -83 281 -153 516 -155 523 -5 15 18 13 -258 15 -126 1 -234 -1
-240 -5z"/>
<path d="M2872 6996 l0 -1485 224 0 c163 1 224 4 225 12 0 7 1 258 1 560 l1
547 166 1 c91 0 177 2 191 5 14 2 36 6 50 8 14 2 48 12 75 21 203 70 367 238
443 454 l27 76 0 360 c0 406 -2 424 -75 570 -48 99 -121 181 -208 238 -167
108 -213 115 -723 117 l-397 1 0 -1485z m811 1010 c58 -21 105 -63 134 -119
l27 -52 0 -280 c0 -261 -1 -283 -20 -325 -25 -53 -74 -104 -129 -133 -36 -18
-58 -21 -205 -21 l-165 -1 -1 473 -1 472 161 0 c108 -1 173 -5 199 -14z"/>
<path d="M2545 5208 c-38 -66 -93 -160 -121 -207 -28 -47 -50 -87 -49 -89 2
-2 358 -4 457 -3 l37 1 -34 58 c-19 31 -74 126 -122 210 -48 83 -90 152 -93
152 -3 0 -36 -55 -75 -122z"/>
<path d="M1714 4957 c2 -12 11 -56 20 -97 8 -41 17 -86 20 -100 2 -14 12 -59
21 -100 9 -41 18 -91 21 -110 11 -64 8 -65 141 56 48 43 108 97 132 119 25 22
61 54 79 70 l33 31 -183 59 c-101 32 -207 66 -236 76 l-52 18 4 -22z"/>
<path d="M3251 4894 c-118 -41 -216 -76 -218 -78 -5 -5 361 -325 366 -320 3 3
11 37 27 124 3 14 18 94 34 177 34 175 34 173 18 172 -7 -1 -109 -34 -227 -75z"/>
<path d="M2498 4708 c-71 -9 -190 -49 -254 -84 -169 -93 -317 -277 -367 -454
-19 -65 -33 -177 -31 -240 10 -305 208 -584 489 -689 418 -156 868 65 1005
494 30 92 37 288 14 385 -92 391 -457 642 -856 588z m260 -233 c176 -52 306
-178 367 -357 21 -64 24 -86 21 -183 -3 -89 -9 -122 -29 -172 -67 -166 -187
-277 -353 -329 -97 -29 -241 -28 -328 4 -256 93 -412 355 -361 605 21 99 22
104 56 167 36 68 113 153 179 197 50 33 143 71 205 82 60 11 179 4 243 -14z"/>
<path d="M3529 4348 c-2 -15 -2 -3 5 -113 4 -49 9 -103 11 -120 4 -26 17 -196
18 -232 0 -7 2 -13 5 -13 4 0 87 57 307 211 109 77 111 68 -25 129 -120 54
-284 130 -302 140 -13 7 -18 7 -19 -2z"/>
<path d="M1668 4317 c-31 -13 -60 -26 -64 -30 -4 -4 -14 -7 -23 -7 -9 0 -27
-6 -41 -13 -14 -7 -47 -21 -75 -31 -27 -10 -63 -24 -80 -30 -16 -7 -45 -19
-62 -26 -30 -11 -45 -30 -25 -30 4 0 88 -65 187 -144 99 -80 183 -141 187
-138 3 4 9 25 12 47 3 22 10 72 15 110 6 39 13 88 15 110 3 22 12 77 19 123 9
57 10 82 3 81 -6 0 -37 -10 -68 -22z"/>
<path d="M1656 3648 c-9 -12 -16 -25 -16 -29 0 -3 -47 -87 -104 -187 -58 -100
-102 -183 -98 -183 25 -5 465 -3 473 2 5 3 -13 43 -41 89 -27 46 -50 84 -50
86 0 3 -139 236 -144 241 -2 2 -11 -6 -20 -19z"/>
<path d="M3418 3460 c-65 -114 -118 -210 -118 -212 0 -5 478 -3 483 2 3 3 -40
82 -95 175 -56 94 -110 187 -121 208 -11 20 -23 37 -26 37 -3 0 -59 -95 -123
-210z"/>
<path d="M2055 3098 c4 -24 9 -54 12 -68 2 -14 12 -72 23 -130 10 -58 21 -123
25 -145 12 -69 16 -89 19 -92 2 -2 31 21 121 95 105 87 255 215 255 217 0 2
-15 8 -32 14 -39 11 -274 97 -303 110 -31 14 -110 41 -119 41 -4 0 -5 -19 -1
-42z"/>
<path d="M2917 3051 l-219 -87 114 -90 c221 -177 270 -215 274 -211 2 2 6 21
9 43 3 21 7 53 10 69 3 17 7 48 10 70 6 44 13 89 19 120 2 11 7 45 10 76 4 31
9 66 11 78 2 12 -1 21 -8 20 -7 0 -110 -40 -230 -88z"/>
<path d="M1625 2172 l-60 -3 1 -422 c1 -232 2 -424 3 -427 1 -5 106 -6 129 -1
4 0 6 77 6 170 -1 165 -1 169 20 173 35 7 85 -11 97 -34 7 -13 13 -77 14 -159
1 -75 5 -140 8 -145 3 -5 34 -9 69 -9 l63 0 -3 145 c-4 169 -12 208 -52 248
l-29 29 24 20 c39 31 53 79 53 185 1 200 -64 244 -343 230z m152 -127 c51 -9
57 -29 54 -172 -1 -58 -27 -83 -85 -83 l-44 0 0 128 c0 143 -2 140 75 127z"/>
<path d="M3054 2165 c-2 -5 -3 -199 -2 -430 l3 -420 55 -1 c30 0 60 1 67 4 17
5 17 852 0 853 -85 4 -120 2 -123 -6z"/>
<path d="M4282 2172 l-43 -3 3 -62 3 -61 68 1 67 1 0 -367 0 -368 68 1 67 2 2
344 c1 190 2 355 2 367 1 19 6 22 39 21 20 0 51 0 68 1 l32 1 -2 61 -1 61
-165 2 c-91 0 -184 0 -208 -2z"/>
<path d="M7065 2163 c-46 -24 -66 -45 -86 -88 -15 -34 -25 -126 -20 -182 1 -9
21 -13 65 -13 l64 0 1 61 c1 82 6 95 42 108 61 21 94 -14 92 -99 -2 -86 -42
-159 -158 -285 -75 -83 -104 -155 -109 -270 -3 -85 -12 -81 201 -80 l188 0 3
62 3 62 -128 3 -128 3 3 30 c4 34 34 82 88 140 66 70 114 136 141 194 23 48
27 70 27 151 1 109 -11 142 -70 187 -32 24 -47 28 -113 30 -53 1 -85 -3 -106
-14z"/>
<path d="M7921 2160 c-48 -22 -63 -38 -88 -90 -13 -30 -16 -79 -17 -325 -1
-284 0 -291 23 -338 32 -67 91 -100 176 -100 91 0 151 32 184 97 25 48 25 52
26 315 1 146 -3 287 -8 313 -11 56 -56 113 -104 133 -50 21 -139 19 -192 -5z
m151 -132 c16 -18 17 -46 15 -293 -2 -261 -3 -275 -22 -289 -21 -16 -63 -20
-81 -8 -29 19 -33 55 -32 303 0 139 4 264 9 277 17 44 77 49 111 10z"/>
<path d="M8909 2138 c-23 -45 -56 -69 -98 -70 -17 -1 -31 -4 -32 -7 -1 -3 -2
-25 -4 -48 l-2 -43 41 -1 c23 -1 47 -1 53 0 10 1 13 -73 15 -326 l3 -328 55
-1 c30 0 60 1 66 3 8 3 11 123 11 428 l0 423 -44 4 c-43 3 -46 2 -64 -34z"/>
<path d="M9660 2164 c-84 -36 -120 -109 -115 -231 2 -72 18 -115 54 -147 l21
-19 -24 -24 c-40 -40 -55 -101 -51 -207 4 -115 26 -164 93 -203 60 -36 162
-36 229 -2 68 36 94 90 97 206 4 103 -13 169 -49 203 l-25 24 23 25 c37 41 48
72 51 141 4 97 -9 144 -52 189 -56 59 -172 80 -252 45z m129 -119 c37 -19 40
-29 38 -114 -3 -84 -18 -105 -73 -104 -52 2 -67 22 -72 95 -4 74 9 115 40 128
32 12 35 12 67 -5z m16 -369 c21 -21 23 -32 23 -111 0 -79 -2 -90 -23 -111
-33 -33 -77 -32 -105 3 -19 25 -21 38 -18 116 3 79 6 91 27 108 31 26 67 24
96 -5z"/>
<path d="M2442 1743 l3 -66 50 0 c28 1 56 2 63 2 8 1 12 21 12 66 l0 65 -65 0
-66 0 3 -67z"/>
<path d="M3668 1745 c2 -40 8 -65 15 -66 17 -1 89 -1 105 0 8 1 12 21 12 66
l0 65 -67 0 -68 0 3 -65z"/>
<path d="M5669 1805 c-1 0 -2 -28 -3 -62 l-1 -63 122 0 c131 0 125 -2 125 50
0 11 0 32 -1 48 l-1 27 -120 0 c-66 0 -121 0 -121 0z"/>
</g>
</svg>
